<?xml version="1.0" standalone="no"?>
<!DOCTYPE svg PUBLIC "-//W3C//DTD SVG 20010904//EN"
 "http://www.w3.org/TR/2001/REC-SVG-20010904/DTD/svg10.dtd">
<svg version="1.0" xmlns="http://www.w3.org/2000/svg"
 width="1025.000000pt" height="1025.000000pt" viewBox="0 0 1025.000000 1025.000000"
 preserveAspectRatio="xMidYMid meet">
<metadata>
Created by potrace 1.14, written by Peter Selinger 2001-2017
</metadata>
<g transform="translate(0.000000,1025.000000) scale(0.100000,-0.100000)"
fill="#000000" stroke="none">
<path d="M6755 10135 c-38 -6 -83 -17 -98 -23 -16 -7 -39 -12 -52 -12 -15 0
-49 -24 -97 -69 -40 -38 -91 -86 -113 -106 -22 -21 -114 -108 -204 -194 -424
-403 -497 -472 -486 -452 4 7 9 30 10 51 1 20 4 41 7 46 3 5 6 29 7 53 1 25 4
48 7 53 3 4 -4 15 -15 25 -11 9 -18 20 -15 25 5 7 0 10 -27 12 -7 1 -13 -21
-14 -54 -2 -30 -6 -71 -10 -90 -4 -19 -7 -41 -8 -47 0 -7 -5 -13 -10 -13 -6 0
-6 -5 1 -12 5 -7 6 -22 2 -33 -4 -11 -4 -33 1 -48 8 -30 19 -19 -225 -251
l-69 -66 -26 17 c-14 9 -34 27 -44 40 -10 13 -25 30 -33 38 -9 8 -12 15 -9 15
4 0 -2 15 -13 33 -12 17 -21 34 -22 37 -6 32 -14 50 -21 50 -14 0 -11 -17 7
-34 8 -9 11 -16 5 -16 -6 0 -8 -6 -6 -12 2 -7 7 -24 9 -38 12 -62 36 -135 46
-138 5 -2 10 -11 10 -21 0 -9 5 -22 12 -29 8 -8 -8 -30 -68 -86 -43 -42 -83
-76 -87 -76 -4 0 -10 7 -13 15 -4 8 -10 12 -15 9 -5 -3 -9 -2 -8 3 4 12 -23
63 -33 63 -4 0 -8 7 -8 15 0 8 -4 15 -10 15 -5 0 -10 7 -10 15 0 8 -3 15 -7
15 -5 0 -13 10 -19 23 -28 57 -60 113 -67 118 -5 3 -8 8 -7 10 1 2 -4 18 -11
34 -7 17 -13 33 -14 38 -2 4 -4 10 -5 15 -1 4 -2 10 -1 15 0 4 -3 7 -9 7 -6 0
-9 3 -9 8 3 19 -3 56 -8 44 -2 -6 -9 -10 -14 -6 -5 3 -9 0 -9 -6 0 -6 -12 -21
-26 -33 -25 -22 -42 -87 -23 -87 5 0 9 -11 9 -24 0 -14 5 -28 11 -31 6 -4 8
-14 5 -22 -3 -8 -2 -12 3 -9 7 5 22 -40 20 -60 0 -4 4 -10 9 -13 5 -3 25 -36
44 -73 19 -37 38 -65 41 -61 4 3 7 1 7 -6 0 -7 18 -39 39 -71 33 -49 37 -62
27 -72 -7 -7 -80 -76 -161 -153 -81 -77 -163 -155 -181 -172 -19 -18 -38 -34
-42 -34 -19 -4 -55 -7 -152 -13 -112 -8 -181 -13 -270 -21 -30 -3 -158 -37
-284 -75 -172 -53 -232 -67 -237 -58 -9 14 -19 7 -23 -15 -3 -24 -22 -42 -145
-140 -64 -50 -127 -101 -140 -112 -21 -17 -144 -258 -306 -600 -84 -178 -103
-228 -108 -295 -4 -36 -10 -101 -14 -145 -4 -44 -7 -120 -6 -170 1 -49 3 -187
4 -306 3 -153 0 -223 -8 -240 -7 -13 -26 -55 -42 -92 -24 -54 -36 -70 -61 -78
-16 -6 -30 -15 -30 -20 0 -5 -7 -9 -15 -9 -7 0 -19 -8 -24 -17 -6 -10 -11 -14
-11 -10 0 4 -6 3 -12 -3 -47 -39 -62 -50 -70 -50 -5 0 -6 -4 -3 -10 3 -6 0
-10 -7 -10 -7 -1 -26 -17 -43 -36 -16 -20 -41 -48 -55 -63 -24 -27 -38 -61
-24 -61 4 0 16 10 28 23 12 12 36 33 55 47 18 14 39 30 46 37 7 7 15 9 19 6 3
-4 6 -1 6 5 0 7 7 12 15 12 8 0 15 3 15 8 0 4 20 16 45 27 25 11 45 24 45 28
0 5 4 6 9 2 6 -3 14 3 20 12 12 21 14 14 12 -57 0 -25 6 -81 14 -125 8 -44 16
-93 19 -110 3 -16 14 -86 26 -154 12 -68 20 -139 18 -157 l-3 -32 -180 125
c-167 115 -214 144 -240 148 -5 0 -9 7 -7 14 2 8 4 32 5 55 1 22 7 47 14 54
16 16 16 29 3 37 -5 3 -10 -3 -10 -14 0 -10 -5 -21 -10 -23 -6 -2 -12 -13 -13
-26 0 -12 -5 -22 -10 -22 -4 0 -6 -4 -2 -9 3 -5 0 -13 -6 -16 -5 -4 -8 -13 -5
-21 3 -8 1 -14 -4 -14 -6 0 -10 -6 -10 -12 0 -7 -24 -39 -53 -70 -41 -45 -62
-60 -99 -69 -37 -10 -49 -19 -62 -46 -31 -65 -25 -84 64 -203 31 -43 83 -127
115 -186 82 -155 127 -223 220 -335 59 -72 81 -106 83 -130 1 -18 8 -39 14
-46 7 -9 7 -13 0 -13 -7 0 -8 -10 -2 -28 4 -16 4 -36 -1 -45 -6 -10 -5 -18 1
-22 7 -4 7 -12 0 -24 -5 -10 -7 -21 -4 -24 3 -3 -11 -13 -30 -22 -20 -10 -39
-21 -41 -26 -3 -4 -12 -6 -20 -2 -8 3 -15 -1 -15 -8 0 -7 -3 -9 -7 -6 -3 4
-12 2 -20 -4 -10 -9 -13 -8 -13 2 0 9 -3 10 -8 4 -4 -5 -14 -12 -22 -13 -33
-8 -264 -2 -273 7 -6 6 -19 6 -32 1 -13 -5 -25 -7 -28 -4 -6 7 -45 14 -102 20
-68 6 -78 8 -94 18 -10 6 -12 5 -7 -2 8 -13 -6 -16 -18 -5 -4 4 -26 8 -49 8
-23 0 -48 4 -54 8 -7 5 -13 4 -13 -1 0 -7 -32 -8 -50 -2 -3 1 -16 2 -30 1 -97
-4 -126 -7 -132 -16 -4 -5 -20 -11 -35 -13 -55 -5 -61 -6 -57 -14 3 -4 -4 -8
-15 -8 -12 0 -21 -4 -21 -10 0 -5 -7 -10 -15 -10 -8 0 -15 -5 -15 -12 0 -6 -3
-9 -6 -5 -8 8 -104 -94 -104 -110 0 -7 -4 -13 -9 -13 -5 0 -13 -10 -17 -22 -4
-13 -14 -29 -23 -36 -12 -10 -12 -12 -1 -6 12 6 13 4 3 -7 -7 -7 -13 -21 -13
-32 0 -10 -4 -16 -9 -13 -5 4 -8 -5 -7 -19 2 -13 0 -22 -4 -20 -12 7 -17 -36
-13 -106 5 -90 5 -89 17 -89 6 0 4 -5 -4 -10 -11 -7 -11 -10 -2 -10 7 0 11 -4
7 -9 -3 -5 -1 -12 5 -16 5 -3 10 -13 10 -22 0 -8 11 -37 24 -63 13 -27 22 -51
19 -54 -4 -3 -1 -6 5 -6 7 0 12 -5 12 -11 0 -6 9 -24 21 -40 11 -16 17 -29 13
-29 -4 0 2 -10 14 -23 12 -13 19 -27 15 -30 -3 -4 -1 -7 5 -7 7 0 12 -6 12
-14 0 -8 4 -16 8 -18 5 -1 22 -28 39 -58 16 -30 35 -64 41 -75 16 -27 36 -78
34 -87 -1 -5 2 -8 7 -8 5 0 12 -17 16 -37 8 -48 10 -238 2 -278 -13 -62 -16
-75 -22 -85 -4 -6 -60 -51 -125 -100 -65 -49 -129 -99 -143 -112 -14 -13 -51
-46 -83 -74 -33 -28 -71 -62 -86 -75 -40 -35 -151 -327 -183 -479 0 -3 -4 -21
-8 -40 -56 -277 -78 -354 -126 -444 -31 -57 -59 -129 -76 -194 l-27 -102 24
-20 c12 -11 27 -19 32 -20 14 0 -4 -89 -42 -205 -20 -60 -36 -119 -35 -130 7
-119 16 -181 36 -240 l23 -70 -22 -70 c-12 -39 -33 -98 -48 -132 -14 -34 -26
-74 -26 -88 l0 -25 4633 2 4632 3 -1 30 c-1 17 -4 102 -7 191 l-6 160 -52 135
c-48 122 -69 159 -233 406 -100 150 -247 382 -327 515 -80 134 -204 326 -274
428 -116 168 -157 218 -307 383 -26 29 -91 102 -145 162 -54 61 -122 131 -152
155 -29 25 -59 50 -65 55 -131 116 -156 134 -241 168 -573 229 -780 323 -766
346 5 7 11 12 15 12 12 -1 41 13 54 26 18 17 27 67 11 57 -8 -4 -9 -3 -5 4 14
23 -76 132 -125 153 -16 6 -29 16 -29 21 0 5 -5 6 -10 3 -6 -4 -23 0 -38 7
-35 17 -168 24 -186 9 -8 -7 -18 -11 -22 -9 -15 4 -76 -32 -124 -72 l-46 -38
-199 62 c-110 35 -270 90 -355 124 l-155 62 -233 233 -234 234 21 41 c12 23
21 50 21 62 0 11 3 20 8 20 4 0 8 21 10 47 4 59 38 141 125 303 66 121 79 153
112 271 l16 57 63 -20 c46 -16 74 -19 109 -14 43 7 50 12 95 74 54 75 143 276
163 367 7 33 13 62 14 65 11 53 19 87 21 95 15 57 22 123 19 185 -2 41 -5 111
-6 155 -2 85 -3 87 -83 150 -22 18 -25 29 -31 115 -4 52 -8 235 -11 405 l-3
310 -99 247 c-71 178 -93 244 -80 237 10 -5 18 -6 18 -2 0 4 5 2 12 -5 7 -7
21 -12 33 -12 12 0 27 -6 33 -12 10 -10 15 -10 22 2 6 9 10 10 10 3 0 -7 20
-12 53 -13 28 0 81 -2 115 -3 35 -1 66 1 68 5 3 4 10 5 17 3 7 -3 44 -6 82 -9
120 -7 196 -31 251 -78 25 -22 34 -78 12 -78 -6 0 -9 -3 -5 -6 3 -4 0 -22 -8
-40 -8 -19 -11 -34 -8 -34 3 0 0 -7 -7 -15 -7 -8 -9 -15 -5 -15 4 0 3 -6 -2
-12 -6 -7 -9 -21 -8 -30 2 -10 0 -18 -5 -18 -4 0 -6 -10 -6 -22 1 -13 -5 -32
-13 -42 -9 -11 -11 -16 -4 -12 9 5 12 -2 10 -24 -1 -16 -5 -30 -8 -30 -3 0 -4
-22 -3 -50 2 -30 -1 -50 -8 -50 -7 0 -7 -4 -1 -12 6 -7 10 -31 10 -53 1 -88
16 -230 25 -236 6 -4 8 -11 5 -16 -3 -5 -2 -15 3 -22 5 -8 7 0 7 23 -1 20 -5
36 -9 36 -5 0 -4 9 2 19 7 14 6 21 -3 24 -9 4 -9 6 1 6 9 1 10 6 3 20 -6 10
-9 20 -7 22 2 2 7 40 10 84 7 101 11 117 51 245 1 3 5 13 10 23 4 10 9 26 10
35 1 10 4 24 7 32 22 64 25 80 17 86 -6 3 -5 11 2 20 7 9 8 14 1 14 -6 0 -9 8
-8 17 2 10 -1 36 -6 58 -6 22 -12 51 -14 65 -9 49 -11 55 -26 90 -15 35 -88
121 -88 104 0 -5 -5 -2 -10 6 -5 8 -13 15 -17 16 -4 0 -15 4 -23 7 -33 14
-127 34 -150 32 -14 -1 -33 2 -44 7 -14 7 -16 7 -11 -2 6 -9 1 -10 -16 -4 -13
4 -28 6 -34 5 -27 -4 -205 -5 -205 -1 0 3 -18 6 -40 7 -78 4 -73 -11 -45 148
13 77 24 146 30 191 2 11 8 45 14 75 5 30 13 72 16 94 11 73 14 90 20 115 2
14 7 43 10 65 3 22 7 51 10 65 3 14 7 43 10 65 3 22 7 47 10 55 3 13 10 52 20
125 2 11 6 35 9 53 3 17 8 47 11 65 3 17 8 39 10 47 2 8 7 38 11 65 10 78 11
88 23 146 6 30 13 72 16 94 2 22 7 50 9 61 8 40 18 99 21 131 2 18 6 40 9 50
3 10 8 36 11 58 5 40 10 70 21 135 4 19 8 44 9 55 2 11 6 36 10 55 3 19 8 47
10 63 3 15 7 39 10 55 2 15 7 43 10 62 4 19 8 46 10 60 2 14 10 66 19 115 8
50 17 104 20 120 2 17 10 62 16 100 7 39 12 78 12 89 -1 16 5 18 38 13 96 -13
241 -113 284 -197 25 -48 31 -162 13 -222 -8 -27 -12 -46 -7 -43 16 10 35 103
35 170 -1 102 -44 182 -135 248 l-25 18 25 -7 c45 -11 157 -74 190 -107 83
-81 114 -168 108 -302 -4 -96 -1 -113 9 -53 12 70 7 194 -11 253 -40 138 -195
245 -396 274 -72 10 -29 24 74 24 103 0 174 -25 234 -81 33 -31 102 -151 102
-177 0 -8 4 -16 9 -20 15 -8 -8 64 -40 126 -80 159 -204 217 -394 184z m-3489
-5712 c20 -32 78 -108 129 -168 104 -124 95 -94 120 -360 l5 -60 -118 -120
c-65 -66 -170 -181 -233 -255 -138 -163 -150 -178 -180 -212 -19 -21 -52 -36
-149 -64 -149 -44 -254 -71 -295 -78 -16 -2 -75 -12 -130 -21 -55 -9 -109 -18
-120 -19 -11 -2 -40 -7 -65 -12 -25 -4 -49 -7 -55 -5 -5 1 -74 -30 -151 -70
l-142 -73 -22 -53 c-20 -47 -35 -63 -123 -130 -55 -42 -97 -72 -94 -66 3 5 8
20 11 34 3 13 8 35 11 49 12 51 16 76 18 122 1 27 5 48 8 48 5 0 5 47 -2 143
-1 26 -7 47 -12 47 -5 0 -7 6 -4 14 3 8 3 17 -1 20 -6 7 -12 30 -14 54 -1 6
-5 12 -9 12 -3 0 -9 9 -12 20 -8 30 -8 31 -39 79 -15 25 -28 51 -28 59 0 7 -4
11 -8 8 -5 -3 -15 10 -22 29 -8 19 -16 35 -19 35 -4 0 -13 15 -21 33 -7 17
-22 40 -31 50 -9 10 -19 32 -23 48 -4 21 -10 28 -18 23 -7 -4 -10 -4 -6 1 4 4
4 13 -1 19 -5 6 -16 35 -25 65 -9 29 -21 61 -28 69 -11 13 -11 14 1 7 11 -6
13 -4 6 11 -12 30 -16 154 -4 154 6 0 8 4 5 9 -3 4 6 13 19 19 14 7 25 16 25
22 0 5 6 10 14 10 8 0 21 6 28 13 12 11 79 37 118 44 59 11 83 13 148 12 112
-1 142 -3 142 -9 0 -3 24 -5 53 -6 64 -1 178 -13 189 -20 4 -3 8 1 8 8 0 8 3
9 8 3 8 -12 56 -18 155 -19 37 -1 67 -4 67 -7 0 -3 7 -6 15 -6 8 0 12 3 10 7
-2 3 17 6 43 4 26 -1 53 3 60 9 8 6 12 5 12 -4 0 -12 2 -12 9 0 5 7 20 14 35
14 14 0 26 3 26 8 0 5 9 9 20 9 11 0 20 5 20 11 0 5 4 8 9 5 10 -7 81 63 81
80 0 6 7 14 15 18 8 3 15 12 15 21 0 8 5 15 11 15 5 0 7 5 4 10 -3 6 -1 10 4
10 6 0 11 9 11 19 0 11 4 22 9 25 5 3 15 35 22 72 12 63 14 65 38 59 15 -4 33
-8 41 -10 8 -2 41 -10 72 -18 34 -9 60 -11 64 -6 14 24 197 135 226 138 4 1
24 -25 44 -56z m3834 -1107 c0 6 25 9 68 7 77 -4 147 -10 147 -13 0 -1 11 -4
24 -6 14 -2 27 -7 30 -10 8 -8 -30 -34 -40 -28 -5 3 -9 0 -9 -6 0 -6 -4 -9 -9
-5 -5 3 -12 1 -16 -5 -4 -6 -10 -8 -15 -5 -5 3 -11 1 -15 -5 -4 -6 -10 -8 -15
-5 -5 3 -11 1 -15 -5 -3 -5 -2 -10 3 -10 5 0 9 -7 9 -15 0 -18 -1 -18 -40 -1
-18 8 -79 29 -137 46 -143 42 -139 41 -115 50 11 4 28 6 38 4 9 -1 17 1 17 6
0 4 11 7 24 6 14 -2 30 1 38 5 7 5 16 3 20 -4 5 -7 8 -8 8 -1z"/>
<path d="M3319 4010 c-24 -27 -49 -55 -55 -62 -13 -17 -14 -48 -1 -48 6 0 19
-8 30 -17 11 -10 17 -12 13 -5 -4 6 -4 12 1 12 4 0 21 20 38 45 16 24 37 46
47 48 19 5 26 37 8 37 -5 0 -10 6 -10 14 0 31 -29 21 -71 -24z"/>
<path d="M5159 9813 c-5 -64 -2 -133 6 -133 7 0 7 -3 0 -8 -5 -4 -11 -32 -12
-62 -6 -155 -6 -227 0 -237 4 -6 1 -14 -5 -16 -9 -4 -9 -8 -3 -14 6 -4 10 -29
10 -55 0 -27 3 -48 8 -48 5 0 7 -9 4 -21 -3 -12 -1 -19 5 -17 11 4 15 80 18
343 3 170 2 177 -12 169 -10 -5 -10 -4 -2 5 8 9 9 23 2 47 -5 19 -6 39 -3 44
3 6 1 10 -4 10 -6 0 -11 -3 -12 -7z"/>
<path d="M2167 9687 c-3 -7 6 -32 20 -55 21 -36 28 -40 44 -32 20 11 26 30 9
30 -5 0 -10 6 -10 13 0 17 -34 57 -48 57 -5 0 -12 -6 -15 -13z"/>
<path d="M7205 9649 c-4 -6 -5 -12 -2 -15 2 -3 7 2 10 11 7 17 1 20 -8 4z"/>
<path d="M5395 9640 c3 -5 1 -10 -4 -10 -6 0 -11 -6 -11 -14 0 -7 -8 -31 -17
-52 -9 -22 -17 -46 -18 -54 0 -8 -4 -21 -9 -29 -6 -10 -5 -12 2 -7 7 4 12 3
12 -2 0 -4 17 -18 38 -29 35 -20 39 -20 62 -5 14 9 28 21 32 27 5 6 8 7 8 0 0
-5 7 -1 15 9 8 11 15 16 15 11 0 -4 8 -1 18 7 26 23 79 48 86 41 3 -4 6 -1 6
6 0 7 5 9 10 6 15 -9 30 4 23 20 -3 8 -13 15 -23 15 -11 0 -21 4 -24 9 -8 12
-78 -4 -126 -29 -49 -25 -53 -25 -45 1 6 16 4 20 -6 13 -12 -6 -12 -5 0 9 11
14 11 20 0 35 -23 28 -60 47 -44 22z"/>
<path d="M3730 9567 c-21 -6 -45 -22 -57 -39 l-21 -30 26 -49 c15 -27 30 -49
34 -49 5 0 17 -8 27 -17 35 -32 87 -68 69 -49 -4 5 -2 13 3 20 5 6 15 19 22
29 12 17 15 16 46 -13 19 -16 39 -30 43 -30 5 0 7 -3 5 -7 -2 -5 4 -16 14 -25
17 -16 19 -16 38 10 12 15 25 32 30 38 6 7 7 15 4 18 -4 3 -1 6 5 6 44 0 -38
97 -118 141 -25 13 -47 26 -50 29 -5 5 -16 8 -48 13 -9 1 -21 5 -27 8 -5 3
-26 1 -45 -4z"/>
<path d="M6756 9528 c10 -13 24 -26 29 -30 6 -4 6 -8 1 -8 -5 0 -2 -8 6 -17
19 -24 49 -103 42 -114 -3 -5 -1 -9 3 -9 9 0 10 -2 18 -100 3 -36 8 -90 10
-120 3 -30 7 -82 9 -115 2 -33 7 -68 11 -78 4 -10 5 -21 1 -24 -3 -4 2 -15 11
-26 10 -11 12 -17 6 -13 -18 10 -15 -2 15 -64 15 -30 36 -59 47 -65 32 -16 85
-58 85 -67 0 -5 -16 -1 -36 7 -51 21 -69 19 -82 -10 -10 -21 -8 -33 10 -70 17
-34 24 -42 30 -30 6 9 1 29 -12 55 -22 44 -17 47 36 25 42 -17 45 -17 66 2 15
14 19 14 33 -1 9 -9 25 -16 36 -16 10 0 19 -4 19 -8 0 -4 36 -8 80 -7 44 0 80
2 80 5 0 3 12 7 26 8 15 1 33 7 40 13 8 6 14 9 14 6 0 -4 21 3 47 14 25 11 52
18 59 15 7 -3 18 2 24 10 7 8 9 14 4 15 -5 0 1 4 14 9 12 5 25 8 28 7 3 -1 10
6 15 16 6 9 16 17 22 17 7 0 18 5 25 12 13 13 20 15 105 22 50 5 57 4 57 -12
0 -13 -13 -21 -44 -30 -40 -10 -43 -14 -42 -43 1 -26 9 -38 38 -58 21 -14 35
-32 33 -38 -2 -7 0 -13 6 -13 6 0 7 -5 3 -11 -8 -13 -15 -58 -17 -106 -1 -18
-4 -33 -7 -33 -3 0 -5 -36 -6 -80 0 -44 2 -80 6 -80 3 0 6 -10 7 -22 1 -11 6
-24 10 -27 4 -3 14 -18 22 -33 8 -15 17 -25 21 -23 4 2 18 -7 30 -20 13 -14
29 -25 37 -25 7 0 13 -4 13 -8 0 -14 66 -32 114 -31 25 1 46 5 46 8 0 4 10 7
22 8 11 1 25 8 29 15 5 7 9 9 9 5 0 -9 93 43 98 55 2 4 9 8 16 8 7 0 21 11 32
24 10 14 21 23 26 20 4 -3 8 0 8 7 0 7 2 10 5 8 2 -3 -1 -25 -8 -49 -7 -25
-12 -56 -11 -70 2 -35 22 -80 34 -80 6 0 9 -4 6 -9 -3 -5 2 -12 12 -17 20 -9
55 -14 48 -6 -3 2 1 20 9 38 8 19 14 36 15 39 1 7 9 32 17 53 3 9 5 21 4 25 0
4 4 18 11 30 7 12 11 27 10 34 -1 6 2 14 7 18 6 3 8 12 4 20 -3 8 -1 15 4 15
15 0 9 66 -8 83 -9 9 -19 13 -23 10 -3 -4 -6 0 -6 7 0 7 -3 10 -6 7 -4 -4 -15
3 -25 15 -11 11 -19 18 -19 13 0 -4 -6 -2 -13 4 -8 6 -17 8 -20 4 -4 -3 -7 -1
-7 6 0 8 -11 4 -30 -9 -16 -12 -30 -18 -30 -15 0 4 -6 0 -13 -7 -8 -7 -29 -24
-47 -38 -19 -14 -41 -33 -49 -42 -9 -10 -19 -18 -23 -18 -5 0 -16 -8 -26 -17
-35 -33 -61 -52 -104 -75 -24 -13 -46 -27 -50 -33 -4 -5 -8 -6 -8 -1 0 5 -6 4
-13 -2 -17 -14 -79 -12 -74 2 3 6 0 19 -4 28 -6 10 -5 19 1 23 7 4 7 13 0 26
-8 14 -7 19 1 19 8 0 8 4 -1 15 -10 12 -10 15 0 15 7 0 10 7 6 15 -3 8 -1 26
4 40 7 17 6 25 -1 25 -8 0 -8 5 1 15 6 8 9 19 5 25 -3 5 -2 10 2 10 5 0 9 15
10 33 1 17 5 59 8 92 8 89 11 165 5 165 -3 0 -6 10 -6 23 -4 53 -41 106 -65
92 -7 -5 -10 -4 -6 2 4 7 -76 57 -111 69 -1 0 5 15 14 33 24 48 10 48 -35 2
-23 -23 -45 -39 -50 -36 -5 3 -12 1 -16 -5 -3 -5 -15 -10 -26 -10 -10 0 -19
-4 -19 -10 0 -5 -3 -9 -7 -8 -10 3 -73 -25 -73 -33 0 -3 -16 -11 -35 -19 -19
-8 -35 -17 -35 -21 0 -8 -40 -24 -52 -21 -5 1 -8 -2 -8 -6 0 -4 -13 -9 -29
-10 -34 -3 -81 31 -81 59 0 11 -4 17 -10 14 -16 -10 -12 -47 9 -82 20 -31 20
-32 0 -28 -10 2 -19 0 -19 -4 0 -4 -6 -8 -12 -8 -7 0 -29 -4 -48 -7 -70 -14
-109 -9 -144 17 -29 23 -55 72 -43 83 4 4 46 12 70 13 9 1 26 15 37 33 26 42
13 62 -52 83 -67 22 -68 24 -73 73 -5 44 4 55 49 66 33 8 76 35 76 47 0 5 -14
2 -31 -7 -17 -8 -38 -17 -47 -19 -10 -2 -24 -5 -32 -7 -8 -1 -16 4 -16 12 -1
8 -3 17 -4 20 -1 3 -3 25 -5 50 -2 25 -4 46 -5 48 -1 1 -3 5 -4 10 -1 4 -5 13
-10 21 -7 11 -6 12 5 6 12 -8 12 -6 0 8 -7 9 -11 17 -7 17 3 0 -1 17 -9 37
-15 35 -15 36 2 21 10 -9 46 -31 81 -49 63 -32 92 -66 92 -109 0 -11 5 -20 11
-20 18 0 4 79 -19 109 -10 14 -42 37 -70 51 -81 40 -106 73 -105 138 0 38 -15
24 -19 -18 -2 -22 -1 -40 2 -40 3 0 6 -10 7 -22 1 -17 -4 -12 -17 16 -22 49
-61 96 -77 96 -7 0 -13 4 -13 8 0 8 -57 32 -75 32 -4 0 0 -10 11 -22z m320
-614 c53 -25 42 -40 -44 -54 -34 -5 -42 -4 -38 7 3 7 2 13 -2 13 -4 0 -7 14
-7 31 -1 29 1 30 28 25 16 -3 44 -13 63 -22z m716 -224 c-2 -17 -7 -29 -11
-28 -3 2 -18 10 -33 17 -43 22 -32 36 28 40 17 1 20 -4 16 -29z"/>
<path d="M7950 9539 c0 -5 -4 -7 -10 -4 -17 11 -11 -9 18 -51 19 -28 33 -39
43 -35 21 8 17 31 -12 70 -23 31 -39 40 -39 20z"/>
<path d="M7210 9507 c36 -104 95 -142 196 -124 70 12 94 5 140 -38 20 -19 39
-35 41 -35 2 0 -6 18 -19 41 -24 44 -43 58 -97 74 -21 6 -35 17 -37 29 -4 25
-23 42 -56 50 -29 7 -39 -8 -13 -18 9 -3 15 -18 15 -39 0 -32 -2 -34 -33 -32
-53 4 -88 30 -134 101 -11 16 -11 15 -3 -9z"/>
<path d="M4687 9489 c6 -23 9 -24 16 -5 3 8 0 17 -7 19 -10 4 -12 -1 -9 -14z"/>
<path d="M2640 9478 c0 -5 -4 -7 -8 -4 -5 3 -23 -4 -41 -15 -18 -11 -35 -18
-38 -15 -8 8 -63 -54 -75 -82 -18 -48 -23 -97 -32 -310 -2 -40 -6 -75 -10 -79
-3 -3 -6 -13 -6 -21 0 -32 -37 -49 -97 -45 -84 5 -132 14 -139 24 -3 5 -13 9
-23 9 -10 0 -31 7 -47 14 -15 8 -31 13 -36 10 -4 -3 -8 0 -8 5 0 6 -3 10 -7 9
-5 -1 -21 5 -38 12 -16 7 -32 14 -35 15 -3 1 -22 9 -44 18 -21 9 -45 17 -52
17 -8 0 -14 4 -14 8 0 4 -28 14 -62 22 -65 14 -148 19 -148 9 0 -3 -6 -6 -13
-6 -19 0 -137 -56 -137 -65 0 -5 -7 -8 -15 -8 -8 0 -15 -7 -15 -15 0 -9 -7
-18 -15 -21 -8 -4 -15 -14 -15 -24 0 -10 -4 -20 -9 -22 -6 -1 -12 -16 -15 -33
-2 -16 -5 -30 -6 -30 -4 0 -11 -45 -13 -87 -1 -27 -6 -48 -10 -48 -5 0 -5 -4
-2 -10 9 -15 10 -93 2 -108 -5 -6 -5 -12 0 -12 4 0 8 -26 9 -58 1 -81 7 -125
17 -139 6 -9 5 -13 -2 -13 -7 0 -9 -5 -4 -12 8 -13 8 -17 17 -78 3 -19 8 -53
12 -75 3 -22 6 -48 6 -57 -1 -10 4 -18 10 -18 5 0 8 -6 5 -13 -3 -8 -1 -20 4
-28 7 -11 14 -9 34 14 14 15 30 27 34 27 14 0 19 37 7 51 -8 9 -8 10 4 4 13
-8 13 -7 1 8 -7 9 -10 17 -7 17 4 0 2 9 -4 20 -8 15 -8 20 1 20 8 0 9 4 0 13
-6 8 -12 36 -14 63 -2 27 -6 54 -9 59 -2 6 -6 35 -7 65 -2 30 -7 58 -13 61 -6
4 -5 8 3 11 12 4 12 8 1 20 -9 12 -10 18 -2 23 6 4 7 12 3 18 -9 13 -8 126 2
222 4 33 7 66 8 73 0 6 4 12 9 12 5 0 7 3 4 8 -2 4 3 23 11 42 9 19 16 38 15
42 -4 17 52 48 77 43 14 -3 43 -8 64 -11 20 -4 37 -11 37 -17 0 -6 3 -8 6 -4
4 3 19 0 35 -9 16 -8 29 -12 29 -9 0 3 21 -6 48 -19 26 -14 62 -30 80 -38 17
-7 32 -17 32 -21 0 -5 5 -5 10 -2 6 4 22 0 35 -9 13 -9 33 -16 45 -16 11 0 20
-5 20 -11 0 -5 3 -8 8 -6 4 3 18 0 32 -6 14 -6 36 -11 50 -13 14 -1 26 -3 28
-4 1 -1 11 -3 21 -4 11 0 23 -4 26 -8 4 -4 15 -4 24 0 9 5 28 8 44 7 15 0 27
3 27 7 0 4 7 8 15 8 8 0 35 20 60 44 25 24 45 41 45 38 0 -4 12 12 26 36 23
39 33 72 38 127 0 11 5 25 9 32 4 6 2 13 -5 15 -7 3 -8 9 -3 19 5 8 10 32 11
54 4 98 8 135 16 135 4 0 8 11 8 24 0 14 5 28 10 31 6 4 8 10 6 14 -3 4 6 7
20 7 13 0 24 -3 24 -8 0 -4 7 -5 15 -2 8 4 15 1 15 -5 0 -6 11 -11 25 -11 14
0 25 -4 25 -10 0 -5 11 -10 23 -10 13 0 27 -3 31 -7 4 -5 12 -9 17 -9 5 -1 10
-2 12 -3 8 -7 87 -5 87 1 0 4 3 7 8 6 15 -3 42 14 36 23 -3 6 0 17 8 26 10 13
10 15 0 9 -7 -4 -36 -2 -65 5 -29 7 -55 12 -59 11 -5 -1 -8 3 -8 8 0 6 -3 9
-7 9 -5 -1 -11 0 -15 1 -5 1 -11 3 -15 5 -5 1 -19 5 -33 8 -43 12 -90 15 -90
5z"/>
<path d="M5078 9473 c-10 -2 -18 -13 -18 -24 0 -10 0 -22 -1 -26 0 -4 4 -9 10
-11 6 -2 17 10 24 27 7 17 17 28 22 24 4 -5 5 -2 1 5 -7 12 -9 13 -38 5z"/>
<path d="M4680 9449 c0 -5 -4 -8 -9 -5 -5 4 -8 -2 -6 -11 1 -10 -2 -23 -7 -30
-5 -6 -10 -25 -10 -42 -1 -17 -4 -31 -8 -31 -4 0 -7 -6 -8 -12 -3 -30 -11 -64
-17 -80 -4 -10 -3 -18 2 -18 5 0 10 6 10 13 1 6 10 35 20 62 11 28 19 60 18
73 -1 12 2 22 7 22 5 0 6 5 3 10 -3 6 -1 10 6 10 7 0 9 3 6 6 -3 4 -2 15 4 25
6 13 6 19 -1 19 -5 0 -10 -5 -10 -11z"/>
<path d="M7138 9413 c-14 -65 17 -139 75 -176 22 -15 48 -27 57 -27 36 0 117
-35 142 -61 15 -15 32 -47 39 -71 11 -35 14 -39 17 -19 11 65 -31 139 -92 165
-17 7 -55 19 -84 26 -87 20 -127 65 -141 155 l-7 40 -6 -32z"/>
<path d="M7538 9208 c-27 -40 -48 -82 -48 -97 1 -24 1 -25 12 -6 6 11 25 43
44 70 28 43 54 105 43 105 -2 0 -25 -33 -51 -72z"/>
<path d="M954 9244 c3 -7 1 -16 -5 -20 -7 -4 -6 -10 1 -19 7 -9 21 -10 45 -5
19 4 35 6 35 3 0 -3 8 1 17 8 9 8 14 9 10 3 -4 -7 7 -11 29 -12 19 -1 39 -4
44 -7 6 -3 7 1 4 9 -9 24 -85 53 -137 53 -36 0 -47 -3 -43 -13z"/>
<path d="M4581 9167 c-8 -21 -54 -71 -95 -104 -8 -7 -36 -23 -63 -35 -26 -13
-51 -27 -54 -31 -3 -5 -9 -8 -13 -8 -3 1 -7 1 -8 0 -2 0 -16 -3 -33 -5 -16 -3
-34 -9 -40 -13 -5 -5 -20 -7 -32 -6 -13 1 -23 -1 -23 -5 0 -3 -10 -6 -22 -7
-74 -2 -156 -11 -166 -17 -6 -3 -13 -2 -17 4 -4 6 -10 8 -16 5 -5 -3 -55 -6
-111 -7 -57 0 -111 -5 -120 -10 -10 -5 -18 -5 -18 0 0 12 -32 12 -47 -1 -9 -6
-13 -6 -13 3 0 8 -4 9 -12 3 -7 -5 -26 -10 -43 -11 -16 -1 -40 -4 -52 -7 -13
-3 -33 -7 -44 -10 -40 -8 -94 -28 -106 -38 -7 -5 -13 -7 -13 -3 0 3 -22 -8
-50 -25 -27 -17 -50 -35 -50 -40 0 -5 -4 -8 -8 -6 -11 3 -82 -70 -74 -77 3 -3
0 -6 -6 -6 -7 0 -12 -7 -12 -15 0 -8 -3 -15 -8 -15 -9 0 -48 -71 -45 -82 2 -4
-1 -8 -6 -8 -5 0 -15 -17 -22 -37 -6 -21 -16 -43 -21 -50 -5 -6 -10 -22 -11
-35 -2 -13 -10 -38 -20 -55 -10 -18 -15 -33 -13 -33 3 0 1 -13 -4 -30 -5 -18
-5 -32 1 -36 6 -3 6 -10 1 -17 -8 -10 -9 -49 -2 -67 1 -3 3 -18 4 -35 0 -16 4
-34 7 -40 5 -9 7 -28 12 -122 2 -18 0 -33 -3 -33 -4 0 -15 -8 -26 -19 -42 -39
-115 -53 -334 -66 -92 -5 -148 -11 -195 -22 -43 -10 -45 -10 -47 -13 -3 -1
-25 -7 -51 -13 -8 -1 -26 -11 -40 -20 -15 -10 -27 -15 -27 -11 0 3 -9 -4 -20
-17 -10 -13 -19 -20 -20 -15 0 5 -10 -4 -23 -20 -12 -16 -21 -32 -19 -36 1 -5
-2 -8 -8 -8 -5 0 -10 -7 -10 -15 0 -8 -5 -15 -10 -15 -6 0 -9 -3 -8 -7 3 -13
-13 -53 -21 -53 -3 0 -7 -8 -8 -17 -2 -20 -10 -58 -14 -58 -3 0 -10 -51 -14
-113 -2 -42 1 -66 9 -74 7 -7 11 -20 8 -30 -2 -10 1 -18 7 -18 6 0 11 -6 11
-12 0 -15 35 -59 101 -128 25 -27 58 -68 75 -92 16 -24 32 -45 35 -48 10 -9
32 -101 31 -132 0 -21 -10 -39 -29 -56 -37 -32 -129 -92 -143 -92 -5 0 -10 -5
-10 -11 0 -6 -7 -9 -15 -5 -8 3 -15 1 -15 -5 0 -6 -4 -7 -10 -4 -5 3 -10 1
-10 -6 0 -7 -3 -10 -6 -6 -3 3 -29 -3 -58 -13 -28 -11 -62 -21 -76 -24 -14 -3
-36 -8 -50 -11 -14 -4 -36 -8 -49 -10 -13 -2 -27 -7 -30 -12 -3 -5 -16 -8 -29
-7 -12 1 -22 -2 -22 -5 0 -4 -12 -8 -26 -9 -15 -1 -33 -7 -40 -13 -8 -6 -14
-9 -14 -5 0 4 -10 0 -23 -9 -13 -8 -27 -12 -30 -8 -4 3 -7 1 -7 -5 0 -6 -10
-14 -22 -18 -42 -13 -225 -163 -200 -164 4 -1 -4 -10 -18 -21 -14 -12 -25 -24
-24 -28 2 -14 -9 -41 -16 -41 -4 0 -17 -18 -29 -40 -11 -22 -19 -40 -16 -40 3
0 -3 -9 -13 -20 -9 -12 -15 -23 -14 -27 2 -3 0 -9 -5 -12 -4 -3 -24 -37 -43
-76 -19 -38 -39 -73 -45 -77 -5 -4 -6 -8 -2 -8 5 0 -1 -13 -12 -29 -12 -16
-21 -33 -21 -38 0 -5 -9 -19 -20 -30 -11 -12 -21 -27 -22 -34 -2 -7 -12 -23
-23 -35 -32 -35 -55 -67 -55 -77 0 -4 -5 -5 -10 -2 -5 3 -10 0 -10 -8 0 -8
-11 -23 -25 -33 -14 -10 -25 -24 -25 -31 0 -7 -5 -13 -11 -13 -6 0 -31 -19
-55 -42 -60 -58 -84 -79 -84 -74 0 3 -14 -8 -32 -24 -17 -16 -35 -27 -40 -24
-4 3 -8 1 -8 -5 0 -27 -324 -180 -416 -197 -16 -3 -31 -8 -34 -12 -3 -4 -9 -8
-15 -9 -18 -3 -70 -12 -119 -23 -26 -5 -52 -8 -56 -5 -5 3 -12 0 -15 -6 -4 -5
-13 -8 -21 -5 -8 3 -14 2 -14 -3 0 -4 -18 -7 -40 -5 -22 1 -38 -1 -35 -6 3 -5
0 -10 -7 -12 -6 -2 -13 -11 -14 -19 -8 -39 -13 -60 -19 -69 -3 -6 0 -10 7 -10
10 0 10 -2 1 -8 -6 -4 -14 -20 -17 -35 -3 -16 -1 -25 5 -22 11 7 30 11 95 20
72 9 78 10 89 17 6 3 34 9 63 13 28 4 52 10 52 14 0 4 6 8 13 9 6 0 23 3 37 7
14 3 30 7 35 8 6 2 25 10 43 19 18 9 30 12 27 7 -3 -5 1 -6 9 -3 9 3 16 10 16
15 0 5 3 8 8 7 4 -1 29 8 56 20 27 12 52 22 57 22 5 0 9 5 9 11 0 5 5 7 10 4
6 -3 10 -1 10 5 0 6 5 8 10 5 6 -3 10 -1 10 4 0 6 5 11 11 11 5 0 36 18 68 40
32 21 62 36 66 32 5 -4 5 -1 1 6 -4 6 -3 12 1 12 15 0 64 42 147 126 100 101
111 114 174 211 29 43 55 83 60 88 4 6 15 25 22 43 8 17 18 32 22 32 5 0 8 7
8 15 0 8 5 15 11 15 5 0 8 4 4 9 -3 5 2 17 11 25 8 9 13 16 10 16 -8 0 57 124
67 128 4 2 5 8 1 13 -3 5 0 9 6 9 6 0 9 4 6 8 -3 5 5 19 17 33 12 14 23 31 25
39 2 8 17 27 33 42 16 15 26 28 21 28 -14 0 136 128 153 130 6 1 17 8 26 16 9
8 19 11 22 7 4 -3 7 -2 7 3 0 5 10 10 22 11 11 1 24 6 27 10 6 8 27 15 49 16
6 0 12 4 12 9 0 5 5 6 10 3 6 -4 17 -1 25 5 8 6 19 9 25 5 5 -3 10 -2 10 2 0
5 9 10 20 11 11 1 28 2 38 3 9 1 22 5 27 10 10 8 65 21 93 22 6 0 12 4 12 7 0
4 14 10 30 14 17 3 55 17 85 31 31 14 59 25 63 25 4 0 20 11 35 25 15 14 27
23 27 19 0 -3 19 15 43 40 61 65 71 78 73 94 2 7 10 22 18 31 9 10 13 21 9 24
-3 4 -1 7 5 7 7 0 12 7 12 15 0 8 4 15 8 15 4 0 8 10 9 23 2 45 8 77 14 77 12
0 17 157 5 185 -5 11 -11 29 -13 40 -2 11 -8 22 -13 23 -6 2 -10 9 -10 15 0 7
-16 30 -36 52 -106 120 -147 173 -173 223 -12 23 -18 42 -14 42 4 0 2 5 -4 11
-14 14 -4 59 13 59 8 0 14 4 14 9 0 8 37 24 53 22 4 -1 7 3 7 8 0 5 7 12 16
15 10 4 13 2 8 -7 -6 -9 -5 -9 7 0 15 12 59 24 97 26 12 1 22 6 22 12 0 5 5 3
10 -5 5 -8 10 -10 10 -4 0 12 4 13 77 16 29 2 53 7 53 11 0 4 9 3 20 -3 11 -6
20 -7 20 -3 0 5 30 8 68 8 153 -3 232 32 298 132 21 32 39 63 41 68 5 26 29
81 38 87 6 5 4 8 -5 8 -10 0 -11 3 -4 8 12 7 29 85 25 114 -1 9 3 19 9 23 6 3
7 11 4 17 -6 10 -15 74 -17 131 -1 9 -4 17 -7 17 -3 0 -5 33 -4 73 0 52 5 81
19 104 10 18 22 30 25 28 4 -2 13 7 20 20 7 14 21 27 31 30 9 3 20 12 23 20 3
8 12 15 20 15 8 0 22 10 30 22 9 12 16 19 16 16 0 -4 25 5 55 19 31 13 64 26
73 28 9 2 17 4 17 5 0 2 20 6 70 14 46 8 186 16 360 21 66 2 143 6 170 10 28
4 57 8 65 9 8 1 21 6 29 10 11 7 12 6 6 -5 -7 -11 -6 -12 7 -2 8 7 27 14 42
15 14 1 26 5 26 9 0 4 8 6 18 5 9 -2 20 1 23 6 3 5 15 10 26 12 30 6 74 32
114 69 10 9 19 14 19 10 0 -5 5 0 11 10 6 9 14 15 19 12 5 -3 11 4 15 15 3 11
12 26 19 33 17 16 78 127 71 127 -3 0 1 10 10 23 8 13 12 27 8 31 -4 4 -1 11
7 16 11 7 11 10 2 10 -7 0 -16 -10 -21 -23z"/>
<path d="M5170 9180 c0 -5 7 -7 15 -4 8 4 15 8 15 10 0 2 -7 4 -15 4 -8 0 -15
-4 -15 -10z"/>
<path d="M1134 9158 c-4 -13 -17 -33 -30 -45 -30 -28 -30 -33 0 -33 17 0 27 8
34 28 10 27 14 72 7 72 -2 0 -7 -10 -11 -22z"/>
<path d="M7495 9049 c15 -48 61 -61 141 -38 34 9 74 14 90 11 28 -5 28 -5 13
19 -18 27 -30 29 -74 16 -93 -26 -122 -27 -152 -4 l-25 20 7 -24z"/>
<path d="M7436 9011 c-9 -10 -40 -31 -69 -46 -60 -32 -85 -52 -99 -79 -10 -18
-9 -18 23 2 19 11 56 33 84 49 27 16 58 43 68 61 21 36 18 41 -7 13z"/>
<path d="M9496 8659 c-19 -15 -24 -24 -16 -29 6 -4 11 -11 10 -16 -1 -5 2 -10
7 -11 9 -3 38 65 30 73 -2 2 -16 -5 -31 -17z"/>
<path d="M7460 8655 c-14 -7 -47 -21 -75 -32 -40 -15 -54 -26 -68 -57 -17 -35
-17 -39 -2 -56 18 -20 49 -34 112 -50 23 -6 49 -17 57 -26 17 -16 36 -11 36
10 0 23 -34 44 -106 65 -84 25 -106 44 -74 61 12 7 47 20 78 31 54 19 92 44
92 61 0 11 -20 9 -50 -7z"/>
<path d="M6650 8618 c0 -5 -4 -6 -10 -3 -7 4 -7 -2 -1 -18 6 -14 8 -27 5 -29
-2 -3 8 -4 23 -2 16 1 28 3 28 4 0 1 10 3 23 6 13 2 22 -1 22 -9 0 -7 3 -8 8
-2 9 13 32 18 32 7 0 -4 12 -8 28 -9 l27 -2 -35 29 c-19 17 -43 30 -55 31 -11
0 -37 2 -57 3 -21 2 -38 -1 -38 -6z"/>
<path d="M6920 8535 c-20 -24 -5 -28 21 -6 19 16 20 20 8 21 -9 0 -22 -7 -29
-15z"/>
<path d="M6808 8497 c-2 -12 -7 -20 -12 -19 -9 4 -26 -16 -26 -30 0 -9 41 -1
52 10 5 5 10 16 11 23 2 8 5 19 9 24 4 6 -2 11 -12 12 -12 1 -20 -6 -22 -20z"/>
<path d="M7364 8422 c-34 -5 -42 -67 -15 -101 12 -14 26 -36 33 -48 15 -30 28
-29 28 1 0 13 -13 40 -30 61 -16 21 -30 40 -30 42 0 4 59 -1 85 -7 6 -1 22 -2
38 -1 20 1 27 6 27 21 0 16 -7 20 -30 20 -36 0 -39 0 -65 9 -11 4 -30 5 -41 3z"/>
<path d="M2028 8356 c-10 -7 -18 -23 -18 -35 0 -28 42 -71 66 -66 11 2 26 4
34 5 8 0 1 7 -16 14 -29 13 -54 56 -32 56 5 0 6 5 3 10 -3 6 0 10 7 10 9 0 9
3 -2 10 -19 12 -21 12 -42 -4z"/>
<path d="M8525 8285 c-16 -7 -26 -14 -22 -14 4 -1 3 -10 -3 -22 -13 -23 -13
-24 15 -33 17 -5 21 -1 23 21 1 15 8 30 15 35 6 4 8 8 2 8 -5 0 -3 5 5 10 22
14 0 11 -35 -5z"/>
<path d="M7367 8216 c-33 -30 -37 -52 -7 -36 20 11 45 48 37 56 -2 2 -16 -7
-30 -20z"/>
<path d="M9665 7930 c-11 -4 -24 -5 -29 -2 -5 3 -6 0 -2 -6 3 -5 0 -13 -6 -15
-7 -3 1 -6 17 -6 22 -1 36 -9 50 -30 10 -16 23 -27 27 -25 5 3 6 9 3 14 -3 5
-1 11 4 15 27 16 -31 67 -64 55z"/>
<path d="M6552 7671 c-26 -22 -28 -46 -6 -55 22 -8 25 -8 23 7 -4 30 2 58 11
52 6 -3 10 -1 10 4 0 16 -14 13 -38 -8z"/>
<path d="M7751 7609 c-26 -28 -26 -37 -3 -58 26 -25 67 -85 51 -77 -8 4 -6 1
3 -7 10 -8 15 -17 12 -20 -10 -9 19 -2 44 11 18 11 20 16 12 32 -6 11 -8 20
-5 20 3 0 -3 10 -15 22 -11 12 -20 25 -20 30 0 4 -13 22 -29 39 l-29 30 -21
-22z"/>
<path d="M2609 7329 c-8 -5 -10 -9 -6 -9 4 0 3 -8 -2 -19 -13 -23 18 -55 56
-57 24 -1 25 0 8 12 -10 7 -23 15 -29 17 -8 3 -8 9 0 23 14 24 -5 47 -27 33z"/>
<path d="M9038 7284 c6 -3 12 -12 12 -20 0 -9 5 -12 12 -8 8 5 9 -4 5 -33 -6
-38 -5 -41 18 -45 15 -3 30 1 37 10 11 13 11 14 -2 7 -12 -7 -13 -6 -4 6 26
33 -2 76 -56 84 -19 3 -29 3 -22 -1z"/>
<path d="M315 7012 c-14 -10 -12 -55 3 -60 12 -4 25 21 22 42 -1 5 4 13 12 17
10 6 8 9 -7 9 -11 0 -24 -4 -30 -8z"/>
<path d="M1770 6911 c0 -5 -8 -12 -17 -15 -10 -3 -31 -26 -48 -51 -16 -24 -34
-45 -39 -45 -13 0 35 -50 48 -50 6 0 22 17 35 39 13 21 37 46 52 55 28 17 30
33 6 64 -11 14 -37 16 -37 3z"/>
<path d="M918 6772 c-19 -2 -28 -9 -28 -22 0 -13 5 -17 20 -13 12 3 20 0 20
-6 0 -7 3 -10 8 -8 4 2 15 -4 25 -15 9 -10 14 -18 11 -18 -3 0 1 -7 10 -15 19
-19 30 -19 23 -1 -3 8 -1 16 5 18 11 4 19 57 8 56 -4 -1 -25 7 -69 25 -3 2
-18 1 -33 -1z"/>
<path d="M7495 6740 c-4 -6 -1 -10 5 -10 6 0 10 -10 9 -22 -2 -13 0 -29 4 -36
12 -18 39 12 35 39 -3 23 -43 45 -53 29z"/>
<path d="M8787 6304 c-3 -3 -3 -12 0 -20 3 -8 1 -14 -5 -14 -16 0 -22 -30 -10
-49 13 -21 25 -14 47 27 17 31 -9 78 -32 56z"/>
<path d="M2022 6136 c-1 -14 2 -16 7 -8 5 9 12 7 28 -7 11 -11 24 -17 27 -14
3 4 6 -1 6 -9 0 -9 6 -18 14 -21 25 -10 24 45 -1 66 -30 24 -79 20 -81 -7z"/>
<path d="M6876 6131 c-4 -6 -3 -11 1 -11 5 0 10 -17 11 -37 2 -21 7 -40 11
-43 5 -3 7 -13 5 -22 -1 -10 2 -20 7 -24 5 -3 7 -10 4 -15 -4 -5 -1 -9 5 -9 6
0 9 -4 5 -9 -3 -5 -1 -12 5 -16 5 -3 10 -15 10 -25 0 -10 11 -32 25 -48 14
-17 25 -35 25 -41 0 -6 7 -11 16 -11 8 0 12 -5 9 -11 -4 -6 2 -13 14 -16 11
-3 19 -9 16 -13 -3 -5 8 -14 25 -22 16 -7 30 -16 30 -19 0 -6 40 -24 73 -34 4
-1 10 -4 15 -5 4 -1 10 -2 15 -1 4 0 7 -3 7 -9 0 -5 13 -10 28 -10 16 0 32 -3
35 -7 7 -7 36 -11 99 -15 21 -2 38 -7 38 -12 0 -6 5 -5 12 2 13 13 32 17 25 5
-6 -10 101 -9 110 0 3 4 12 2 20 -4 8 -7 13 -8 13 -1 0 12 32 10 43 -3 4 -7
10 -7 15 0 4 6 32 11 62 12 30 1 89 4 130 7 41 3 105 7 142 9 38 1 68 4 68 7
0 3 12 5 28 4 15 -1 35 3 46 8 14 8 17 7 11 -3 -6 -8 -4 -10 6 -4 7 5 32 10
54 10 23 1 47 5 53 9 7 4 12 2 12 -6 0 -9 2 -10 8 -1 9 14 309 15 375 2 42 -9
111 -20 135 -21 6 -1 12 -6 12 -11 0 -5 6 -7 13 -4 6 2 23 0 37 -6 28 -11 36
-14 65 -21 11 -2 32 -9 46 -14 15 -6 30 -8 33 -5 3 4 6 1 6 -5 0 -7 6 -12 14
-12 19 0 120 -43 124 -52 2 -5 7 -6 12 -3 4 3 13 -2 20 -10 7 -8 20 -15 30
-15 9 0 28 -8 41 -18 13 -10 38 -24 54 -32 17 -8 32 -17 35 -20 3 -3 23 -18
45 -34 54 -40 165 -151 165 -165 0 -6 3 -11 8 -11 4 0 15 -18 25 -40 10 -25
24 -40 34 -40 10 0 14 4 8 8 -5 4 -11 18 -13 32 -2 14 -5 34 -7 45 -4 24 -36
108 -44 115 -3 3 -15 20 -25 39 -32 57 -110 142 -166 181 -19 13 -40 29 -47
35 -7 5 -19 16 -28 23 -8 7 -15 9 -15 5 0 -4 -4 -3 -8 2 -4 6 -20 17 -37 25
-16 8 -32 18 -35 21 -8 9 -96 49 -108 49 -7 0 -12 5 -12 11 0 6 -7 9 -15 5 -8
-3 -15 -2 -15 2 0 4 -26 16 -57 27 -32 11 -61 23 -64 28 -3 5 -10 8 -15 8 -5
0 -27 5 -49 11 -22 7 -44 12 -50 13 -5 0 -15 4 -22 8 -6 4 -23 8 -37 9 -14 1
-26 5 -26 8 0 5 -37 10 -87 13 -7 0 -13 3 -13 7 0 3 -34 6 -76 6 -42 -1 -78 2
-80 5 -2 4 -20 3 -39 -1 -24 -5 -35 -4 -35 4 0 7 -3 7 -8 1 -4 -5 -34 -10 -67
-9 -33 0 -70 -6 -83 -13 -12 -8 -22 -10 -21 -6 3 19 -2 25 -14 15 -7 -6 -42
-13 -77 -16 -36 -2 -65 -5 -65 -6 0 -2 -32 -4 -140 -10 -27 -2 -60 -7 -73 -12
-14 -5 -21 -4 -17 1 3 6 -6 6 -24 1 -19 -5 -33 -4 -40 3 -6 6 -11 7 -11 1 0
-10 -103 -17 -275 -16 -134 0 -184 4 -203 16 -6 4 -16 5 -21 1 -5 -3 -13 0
-16 6 -4 5 -13 8 -21 5 -8 -3 -14 -2 -14 3 0 4 -6 8 -14 8 -25 0 -140 63 -180
98 -21 19 -35 35 -31 35 5 0 -2 8 -13 19 -12 10 -22 21 -22 24 0 17 -49 87
-54 78z"/>
<path d="M6529 5487 c-26 -20 -30 -56 -7 -68 19 -10 20 -9 15 10 -3 11 -2 23
3 26 10 6 20 45 12 45 -4 0 -14 -6 -23 -13z"/>
<path d="M9593 5135 c0 -8 4 -12 9 -9 5 3 6 10 3 15 -9 13 -12 11 -12 -6z"/>
<path d="M8582 5111 c-13 -8 -12 -51 1 -51 5 0 4 -6 -2 -13 -6 -8 -8 -16 -5
-19 3 -4 -1 -19 -10 -36 -8 -16 -13 -32 -11 -36 3 -3 2 -4 -1 -1 -4 2 -19 -12
-35 -31 l-28 -35 42 -37 c23 -20 45 -41 50 -47 8 -11 36 21 59 65 7 14 17 28
23 32 5 4 6 8 1 8 -4 0 -1 11 8 25 12 18 13 25 4 25 -9 0 -9 3 -2 8 16 11 11
64 -8 91 -21 30 -72 61 -86 52z"/>
<path d="M7861 4951 c-23 -6 -23 -7 -7 -24 10 -9 21 -15 25 -13 11 7 73 -52
67 -62 -3 -5 1 -9 9 -9 9 0 15 10 15 23 0 13 5 26 11 30 16 10 -34 53 -68 58
-15 2 -39 1 -52 -3z"/>
<path d="M6479 4713 c0 -5 -2 -18 -5 -30 -3 -18 1 -23 17 -23 12 0 19 5 16 13
-2 6 2 20 11 30 14 16 13 17 -11 17 -15 0 -27 -3 -28 -7z"/>
<path d="M1274 4593 c2 -3 -5 -14 -15 -24 -20 -20 -20 -20 11 -56 29 -33 55
-80 52 -95 -2 -8 17 -4 49 11 l26 13 -24 45 c-13 25 -30 52 -38 60 -8 8 -15
19 -15 24 0 5 -7 9 -16 9 -8 0 -13 4 -10 8 3 5 -1 9 -9 9 -8 0 -13 -2 -11 -4z"/>
<path d="M8109 4587 c-1 -12 -3 -24 -14 -67 -4 -14 -8 -33 -8 -42 -1 -10 -4
-18 -7 -18 -3 0 -7 -8 -8 -17 -2 -24 -10 -58 -13 -58 -1 0 -3 -9 -4 -20 -1
-11 -4 -29 -5 -40 -6 -51 0 -61 58 -90 31 -17 59 -32 62 -35 18 -20 82 13 137
69 13 13 23 20 23 16 0 -4 13 5 28 21 105 109 267 188 286 139 3 -8 0 -15 -7
-15 -8 0 -8 -3 1 -9 10 -6 13 -32 13 -95 -3 -142 -4 -156 -15 -156 -6 0 -5 -4
2 -9 8 -4 14 -12 14 -16 0 -4 -6 -12 -14 -16 -7 -5 -8 -9 -3 -9 11 0 13 -46 2
-56 -3 -4 -2 -15 4 -25 7 -14 6 -19 -3 -19 -8 0 -9 -3 -3 -8 6 -4 11 -27 12
-51 1 -24 5 -46 10 -50 5 -3 8 -16 7 -28 -1 -13 4 -23 10 -23 6 0 17 -9 24
-20 7 -11 19 -20 27 -20 8 0 15 -4 15 -10 0 -5 5 -10 10 -10 6 0 30 -9 54 -21
43 -20 81 -25 121 -16 37 9 125 51 125 59 0 5 4 7 9 3 6 -3 14 3 20 12 5 10
11 16 13 15 5 -6 58 21 58 30 0 4 3 7 8 6 4 -1 21 5 38 15 17 9 34 14 36 11 3
-2 11 2 17 10 7 8 19 12 27 9 8 -3 14 1 14 8 0 7 3 10 6 6 3 -3 18 -1 32 4 15
6 45 12 67 15 22 2 49 6 60 8 11 2 26 -2 34 -8 12 -9 13 -8 6 4 -8 13 -7 13 8
1 9 -7 17 -10 17 -7 0 4 7 1 15 -8 8 -8 15 -21 15 -29 0 -9 4 -17 9 -19 6 -1
13 -16 16 -33 6 -30 16 -82 19 -100 1 -5 6 -16 10 -24 7 -10 6 -12 -4 -6 -10
6 -11 4 -4 -6 5 -8 10 -30 11 -49 1 -19 5 -51 8 -70 3 -19 7 -46 9 -60 4 -29
24 -108 33 -130 4 -8 7 -17 8 -20 8 -31 18 -50 26 -50 5 0 9 -6 7 -14 -3 -14
81 -116 95 -116 5 0 15 -7 24 -15 8 -8 19 -13 24 -10 5 4 9 3 9 -2 0 -4 12 -9
27 -10 25 -1 26 0 10 12 -9 6 -17 18 -17 24 0 7 -4 9 -10 6 -5 -3 -10 1 -10 9
0 9 -4 16 -9 16 -5 0 -14 15 -22 33 -7 17 -22 45 -33 61 -11 16 -14 26 -7 22
11 -7 11 -4 0 15 -7 13 -12 29 -11 36 1 6 -2 14 -7 18 -6 3 -7 13 -4 22 4 9 2
14 -3 11 -5 -4 -9 13 -9 35 1 23 -3 50 -8 60 -5 10 -9 33 -9 50 0 18 -3 36 -6
42 -3 5 -7 23 -9 40 -5 52 -6 55 -14 55 -5 0 -6 7 -3 15 4 8 1 21 -5 29 -6 7
-8 16 -4 19 3 4 0 7 -7 7 -7 0 -10 3 -7 6 3 4 1 16 -5 28 -7 11 -11 24 -10 29
1 4 -5 7 -13 7 -8 0 -15 7 -15 16 0 8 -4 13 -9 10 -5 -3 -11 1 -15 9 -3 8 -12
15 -21 15 -8 0 -15 4 -15 9 0 12 -96 71 -104 64 -3 -4 -6 -1 -6 5 0 7 -9 12
-20 12 -11 0 -20 6 -20 13 0 8 -4 7 -10 -3 -5 -8 -10 -10 -10 -4 0 15 -129 11
-185 -6 -22 -6 -46 -12 -52 -12 -7 -1 -13 -5 -13 -10 0 -4 -8 -8 -18 -8 -10 0
-23 -5 -30 -12 -7 -7 -12 -9 -12 -5 0 4 -29 -11 -65 -33 -36 -22 -70 -40 -76
-40 -5 0 -7 -4 -4 -10 3 -5 -2 -10 -12 -10 -10 0 -29 -9 -43 -20 -14 -11 -31
-20 -38 -20 -7 0 -21 -6 -33 -12 -17 -11 -22 -10 -31 7 -20 34 -32 195 -15
195 5 0 4 6 -2 14 -7 8 -8 16 -4 19 12 7 8 247 -4 277 -6 14 -11 29 -11 33 -1
15 -84 87 -93 81 -5 -3 -9 -1 -9 5 0 14 -71 49 -87 44 -7 -3 -13 0 -13 5 0 12
-79 10 -98 -2 -6 -4 -12 -4 -12 0 0 3 -7 1 -15 -6 -8 -7 -15 -9 -15 -4 0 5 -4
5 -8 -1 -9 -12 -84 -49 -94 -47 -5 1 -8 -5 -8 -13 0 -8 -4 -14 -8 -12 -4 1
-22 -13 -39 -30 -18 -18 -38 -33 -45 -33 -9 0 -10 3 -2 8 6 4 10 17 9 30 -1
13 2 25 6 28 5 2 6 10 4 17 -2 7 -6 24 -9 39 -5 33 -32 74 -54 84 -31 13 -52
14 -53 1z"/>
<path d="M6814 4201 c9 -10 16 -25 16 -33 0 -31 11 -46 30 -41 14 4 17 12 13
36 -2 18 -12 39 -20 47 -12 11 -14 12 -8 1 6 -10 4 -12 -6 -5 -27 17 -42 14
-25 -5z"/>
<path d="M9140 3081 c-25 -27 -49 -55 -55 -63 -12 -16 -20 -46 -10 -36 4 3 16
-3 27 -14 20 -20 20 -20 38 -1 10 11 21 29 24 41 4 12 14 22 22 22 8 0 13 4 9
9 -3 5 4 12 15 16 25 8 26 43 3 61 -10 7 -20 13 -23 13 -3 0 -25 -22 -50 -48z"/>
</g>
</svg>
